<svg xmlns="http://www.w3.org/2000/svg" style="display: none;">
  
    <symbol id="icon-eda" viewBox="0 0 512 512">
      <path d="m380 492l-248 0 0-472 248 0z m-212-28l184 0 0-259-55 0z m-8-259l0 215 106-215z m150-28l42 0 0-85z m-150 0l120 0 64-129-184 0z"/>
    </symbol>
  
    <symbol id="icon-snow" viewBox="0 0 512 512">
      <path d="m461 189l17-61-62-16-12 47-42 24 10-52-21-4-13 70-23 13-15-27-33 0 0-27 53-47-13-16-40 35 0-49 34-34-45-45-45 45 34 34 0 49-39-35-14 16 53 47 0 27-33 0-15 27-23-13-13-70-21 4 10 52-42-24-12-47-62 16 17 61 47-12 42 24-50 17 7 20 67-23 22 13-18 31 15 27-19 11-67-23-7 20 50 17-42 24-47-12-17 61 62 17 12-48 42-24-10 52 21 4 13-70 20-11 18 32 33 0 0 20-53 47 14 16 39-35 0 49-34 34 45 45 45-45-34-34 0-49 40 35 13-16-53-47 0-20 33 0 18-32 20 11 13 70 21-4-10-52 42 24 12 48 62-17-17-61-47 12-42-24 50-17-7-20-67 23-19-11 15-27-18-31 22-13 67 23 7-20-50-17 42-24z m-30-52l21 6-6 21-20-6z m-365 27l-6-21 21-6 5 21z m15 211l-21-6 6-21 20 6z m365-27l6 21-21 6-5-21z m-205-303l15-15 15 15-15 15z m30 422l-15 15-15-15 15-15z m17-152l-64 0-32-56 32-55 64 0 32 55z"/>
    </symbol>
  
    <symbol id="icon-cross" viewBox="0 0 512 512">
      <path d="m288 256l143-142c4-5 6-10 6-16c0-12-11-23-23-23c-6 0-11 1-16 6l-142 142l-142-142c-5-5-10-6-16-6c-12 0-23 11-23 23c0 6 2 11 6 16l143 142l-143 142c-4 5-6 10-6 16c0 12 11 23 23 23c6 0 11-1 16-6l142-142l142 142c5 5 10 6 16 6c12 0 23-11 23-23c0-6-2-11-6-16z"/>
    </symbol>
  
</svg>
